<svg id="Layer_1" data-name="Layer 1" xmlns="http://www.w3.org/2000/svg" viewBox="0 0 64 64"><title>exticon64</title><path fill="context-fill #4c4c4c" fill-opacity="context-fill-opacity" d="M49.64,52.27a4.5,4.5,0,0,0,.8-2.4A4,4,0,0,0,50,48.09c-1.51-3.29-10.13-3.65-11-6.4-.62-2-1.51-10.22-1.87-14.31a31.79,31.79,0,0,0,6-.62,9.39,9.39,0,0,0,1.06-4.09.89.89,0,0,0-.18-.54c-1-.62-4.71-2.66-6.22-3.55a10.06,10.06,0,0,0,4.36-8.45,10.18,10.18,0,0,0-20.36,0,10.29,10.29,0,0,0,4.36,8.45c-1.51.89-5.16,2.93-6.14,3.55a.93.93,0,0,0-.17.54,9.39,9.39,0,0,0,1.06,4.09c.09.17,2.49.44,6.05.62-.45,4.09-1.25,12.35-1.87,14.31-.89,2.75-9.6,3.11-11,6.4a4,4,0,0,0-.45,1.78,3.92,3.92,0,0,0,.8,2.4c.09.17-3.2,1-3.2,4.09a4.64,4.64,0,0,0,1.43,3.37,17.69,17.69,0,0,0,6.22,2.76A55.81,55.81,0,0,0,32,64a55.59,55.59,0,0,0,13.07-1.51,18.27,18.27,0,0,0,6.31-2.76,4.92,4.92,0,0,0,1.34-3.37C52.76,53.24,49.47,52.44,49.64,52.27Z"/></svg>
