<svg id="Layer_1" data-name="Layer 1" xmlns="http://www.w3.org/2000/svg" viewBox="0 0 48 48"><title>exticon48</title><path d="M37.23,39.2a3.34,3.34,0,0,0,.6-1.8,3,3,0,0,0-.33-1.33c-1.13-2.47-7.6-2.74-8.27-4.8a97.86,97.86,0,0,1-1.4-10.74,23.53,23.53,0,0,0,4.54-.46,7.09,7.09,0,0,0,.8-3.07.63.63,0,0,0-.14-.4c-.73-.47-3.53-2-4.66-2.67A7.54,7.54,0,0,0,31.63,7.6a7.63,7.63,0,0,0-15.26,0,7.72,7.72,0,0,0,3.26,6.33c-1.13.67-3.86,2.2-4.6,2.67a.66.66,0,0,0-.13.4,7.09,7.09,0,0,0,.8,3.07,21.72,21.72,0,0,0,4.53.46c-.33,3.07-.93,9.27-1.4,10.74-.66,2.06-7.2,2.33-8.26,4.8a3,3,0,0,0-.34,1.33,2.91,2.91,0,0,0,.6,1.8c.07.13-2.4.73-2.4,3.07A3.49,3.49,0,0,0,9.5,44.8a13.35,13.35,0,0,0,4.67,2.07A42.16,42.16,0,0,0,24,48a42,42,0,0,0,9.8-1.13,13.8,13.8,0,0,0,4.74-2.07,3.72,3.72,0,0,0,1-2.53C39.57,39.93,37.1,39.33,37.23,39.2Z"/></svg>